<svg width="26.46mm" height="22.502mm" version="1.1" viewBox="0 0 26.46 22.502" xmlns="http://www.w3.org/2000/svg">
 <g transform="matrix(.3596 0 0 .35883 70.294 31.031)" fill="none" stroke="#1e3a8a" stroke-dashoffset="0pt" stroke-linecap="round" stroke-linejoin="round" stroke-width="4.207">
  <path d="m-142.12-55.25c1.25 0.58333 2.6875 1.3125 2.25 5.375-1.3125 3.5625-3.8125 6.6042-10.125 6.375-5.0625-1.2292-10.562-2.6667-10.125-12.75 0.4375-5.2083 5.875-12.438 15.125-12.5 13.375 0.1875 19.938 12 19.375 21.125-0.6875 13-11.083 19.75-25.375 21-7.6667 0-16.562-4.1875-20.625-10.5-5.0625-6.5625-7.0208-20.083-2.75-29 4.5208-9.5417 13.051-15.547 23.125-15.75 9.3542-0.1875 15.5 3.3333 19 5.5l8.25-8"/>
  <path d="m-172.62-69.25c-4.9486 7.7122-8.2603 17.754-11.625 23.875-2.4167 5.25-5.7083 8.25-9.125 12.25 13.567 7.8676 34.476 8.5023 48.062 5.6875"/>
 </g>
</svg>
